<mxfile host="app.diagrams.net" agent="Mozilla/5.0 (Windows NT 10.0; Win64; x64) AppleWebKit/537.36 (KHTML, like Gecko) Chrome/139.0.0.0 Safari/537.36 Edg/139.0.0.0" version="28.1.2">
  <diagram name="Page-1" id="9ShDZQBjmOogpMmFfuTc">
    <mxGraphModel dx="1074" dy="745" grid="1" gridSize="10" guides="1" tooltips="1" connect="1" arrows="1" fold="1" page="1" pageScale="1" pageWidth="850" pageHeight="1100" math="0" shadow="0">
      <root>
        <mxCell id="0" />
        <mxCell id="1" parent="0" />
        <mxCell id="Nvel9qnSEQth3nOyBZjf-1" value="" style="whiteSpace=wrap;html=1;aspect=fixed;" vertex="1" parent="1">
          <mxGeometry x="189" y="110" width="470" height="470" as="geometry" />
        </mxCell>
        <mxCell id="Nvel9qnSEQth3nOyBZjf-2" value="User" style="shape=umlActor;verticalLabelPosition=bottom;verticalAlign=top;html=1;outlineConnect=0;" vertex="1" parent="1">
          <mxGeometry x="20" y="236" width="30" height="60" as="geometry" />
        </mxCell>
        <mxCell id="Nvel9qnSEQth3nOyBZjf-3" value="Database" style="image;aspect=fixed;perimeter=ellipsePerimeter;html=1;align=center;shadow=0;dashed=0;spacingTop=3;image=img/lib/active_directory/database_server.svg;" vertex="1" parent="1">
          <mxGeometry x="739" y="255" width="41" height="50" as="geometry" />
        </mxCell>
        <mxCell id="Nvel9qnSEQth3nOyBZjf-4" value="Login" style="ellipse;whiteSpace=wrap;html=1;fillColor=#e3c800;fontColor=#000000;strokeColor=#000000;" vertex="1" parent="1">
          <mxGeometry x="310" y="246" width="80" height="40" as="geometry" />
        </mxCell>
        <mxCell id="Nvel9qnSEQth3nOyBZjf-5" value="Register User" style="ellipse;whiteSpace=wrap;html=1;fillColor=#e3c800;fontColor=#000000;strokeColor=light-dark(#090801, #8d7600);perimeterSpacing=0;" vertex="1" parent="1">
          <mxGeometry x="310" y="160" width="80" height="40" as="geometry" />
        </mxCell>
        <mxCell id="Nvel9qnSEQth3nOyBZjf-7" value="Enter User Info" style="ellipse;whiteSpace=wrap;html=1;fillColor=light-dark(#ece193, #675000);fontColor=#000000;strokeColor=light-dark(#000000, #cbb9dd);" vertex="1" parent="1">
          <mxGeometry x="426" y="120" width="80" height="40" as="geometry" />
        </mxCell>
        <mxCell id="Nvel9qnSEQth3nOyBZjf-13" value="Validate User" style="ellipse;whiteSpace=wrap;html=1;fillColor=light-dark(#ece193, #ededed);strokeColor=light-dark(#000000, #cbb9dd);" vertex="1" parent="1">
          <mxGeometry x="426" y="206" width="80" height="40" as="geometry" />
        </mxCell>
        <mxCell id="Nvel9qnSEQth3nOyBZjf-18" value="&lt;font style=&quot;font-size: 17px;&quot;&gt;Contact Manager&lt;/font&gt;" style="text;html=1;align=center;verticalAlign=middle;whiteSpace=wrap;rounded=0;" vertex="1" parent="1">
          <mxGeometry x="189" y="110" width="160" height="40" as="geometry" />
        </mxCell>
        <mxCell id="Nvel9qnSEQth3nOyBZjf-19" value="Add&amp;nbsp;&lt;div&gt;Contact&lt;span style=&quot;color: rgba(0, 0, 0, 0); font-family: monospace; font-size: 0px; text-align: start; text-wrap-mode: nowrap;&quot;&gt;%3CmxGraphModel%3E%3Croot%3E%3CmxCell%20id%3D%220%22%2F%3E%3CmxCell%20id%3D%221%22%20parent%3D%220%22%2F%3E%3CmxCell%20id%3D%222%22%20value%3D%22Login%22%20style%3D%22ellipse%3BwhiteSpace%3Dwrap%3Bhtml%3D1%3B%22%20vertex%3D%221%22%20parent%3D%221%22%3E%3CmxGeometry%20x%3D%22130%22%20y%3D%22220%22%20width%3D%2280%22%20height%3D%2240%22%20as%3D%22geometry%22%2F%3E%3C%2FmxCell%3E%3C%2Froot%3E%3C%2FmxGraphModel%3E&lt;/span&gt;&lt;/div&gt;" style="ellipse;whiteSpace=wrap;html=1;fillColor=#76608a;fontColor=#ffffff;strokeColor=light-dark(#000000, #cbb9dd);" vertex="1" parent="1">
          <mxGeometry x="310" y="320" width="80" height="40" as="geometry" />
        </mxCell>
        <mxCell id="Nvel9qnSEQth3nOyBZjf-20" value="Edit&amp;nbsp;&lt;div&gt;Contact&lt;/div&gt;" style="ellipse;whiteSpace=wrap;html=1;fillColor=#76608a;fontColor=#ffffff;strokeColor=light-dark(#000000, #cbb9dd);" vertex="1" parent="1">
          <mxGeometry x="310" y="440" width="80" height="40" as="geometry" />
        </mxCell>
        <mxCell id="Nvel9qnSEQth3nOyBZjf-21" value="Delete Contact" style="ellipse;whiteSpace=wrap;html=1;fillColor=#76608a;fontColor=#ffffff;strokeColor=light-dark(#000000, #cbb9dd);" vertex="1" parent="1">
          <mxGeometry x="310" y="500" width="80" height="40" as="geometry" />
        </mxCell>
        <mxCell id="Nvel9qnSEQth3nOyBZjf-27" value="Search&lt;div&gt;Contact&lt;/div&gt;" style="ellipse;whiteSpace=wrap;html=1;fillColor=#76608a;fontColor=#ffffff;strokeColor=light-dark(#000000, #cbb9dd);" vertex="1" parent="1">
          <mxGeometry x="310" y="380" width="80" height="40" as="geometry" />
        </mxCell>
        <mxCell id="Nvel9qnSEQth3nOyBZjf-35" value="" style="endArrow=none;html=1;rounded=0;entryX=0;entryY=0.5;entryDx=0;entryDy=0;exitX=0.5;exitY=0.5;exitDx=0;exitDy=0;exitPerimeter=0;endFill=0;" edge="1" parent="1" source="Nvel9qnSEQth3nOyBZjf-2" target="Nvel9qnSEQth3nOyBZjf-4">
          <mxGeometry width="50" height="50" relative="1" as="geometry">
            <mxPoint x="240" y="320" as="sourcePoint" />
            <mxPoint x="435" y="370" as="targetPoint" />
          </mxGeometry>
        </mxCell>
        <mxCell id="Nvel9qnSEQth3nOyBZjf-40" value="" style="endArrow=none;html=1;rounded=0;exitX=0.5;exitY=0.5;exitDx=0;exitDy=0;exitPerimeter=0;entryX=0;entryY=0.5;entryDx=0;entryDy=0;endFill=0;" edge="1" parent="1" source="Nvel9qnSEQth3nOyBZjf-2" target="Nvel9qnSEQth3nOyBZjf-5">
          <mxGeometry width="50" height="50" relative="1" as="geometry">
            <mxPoint x="420" y="370" as="sourcePoint" />
            <mxPoint x="470" y="320" as="targetPoint" />
          </mxGeometry>
        </mxCell>
        <mxCell id="Nvel9qnSEQth3nOyBZjf-51" value="&amp;lt;&amp;lt;include&amp;gt;&amp;gt;" style="html=1;verticalAlign=bottom;labelBackgroundColor=none;endArrow=none;endFill=0;dashed=1;rounded=0;exitX=1;exitY=0.5;exitDx=0;exitDy=0;entryX=0;entryY=0;entryDx=0;entryDy=0;" edge="1" parent="1" source="Nvel9qnSEQth3nOyBZjf-5" target="Nvel9qnSEQth3nOyBZjf-13">
          <mxGeometry x="1" y="17" width="160" relative="1" as="geometry">
            <mxPoint x="310" y="300" as="sourcePoint" />
            <mxPoint x="470" y="300" as="targetPoint" />
            <mxPoint x="3" y="2" as="offset" />
          </mxGeometry>
        </mxCell>
        <mxCell id="Nvel9qnSEQth3nOyBZjf-52" value="Enter Contact Info" style="ellipse;whiteSpace=wrap;html=1;fillColor=#d0cee2;strokeColor=light-dark(#000000, #cbb9dd);fillStyle=auto;" vertex="1" parent="1">
          <mxGeometry x="426" y="286" width="90" height="45" as="geometry" />
        </mxCell>
        <mxCell id="Nvel9qnSEQth3nOyBZjf-53" value="&amp;lt;&amp;lt;include&amp;gt;&amp;gt;" style="html=1;verticalAlign=bottom;labelBackgroundColor=none;endArrow=none;endFill=0;dashed=1;rounded=0;exitX=1;exitY=0.5;exitDx=0;exitDy=0;entryX=0;entryY=1;entryDx=0;entryDy=0;" edge="1" parent="1" source="Nvel9qnSEQth3nOyBZjf-19" target="Nvel9qnSEQth3nOyBZjf-52">
          <mxGeometry x="-0.7657" y="19" width="160" relative="1" as="geometry">
            <mxPoint x="380" y="356" as="sourcePoint" />
            <mxPoint x="428" y="330" as="targetPoint" />
            <mxPoint as="offset" />
          </mxGeometry>
        </mxCell>
        <mxCell id="Nvel9qnSEQth3nOyBZjf-54" value="&amp;lt;&amp;lt;extends&amp;gt;&amp;gt;" style="html=1;verticalAlign=bottom;labelBackgroundColor=none;endArrow=none;endFill=0;dashed=1;rounded=0;exitX=1;exitY=0.5;exitDx=0;exitDy=0;entryX=0;entryY=1;entryDx=0;entryDy=0;" edge="1" parent="1" source="Nvel9qnSEQth3nOyBZjf-4" target="Nvel9qnSEQth3nOyBZjf-13">
          <mxGeometry x="0.5498" y="-27" width="160" relative="1" as="geometry">
            <mxPoint x="410" y="346" as="sourcePoint" />
            <mxPoint x="459" y="330" as="targetPoint" />
            <mxPoint as="offset" />
          </mxGeometry>
        </mxCell>
        <mxCell id="Nvel9qnSEQth3nOyBZjf-55" value="&amp;lt;&amp;lt;include&amp;gt;&amp;gt;" style="html=1;verticalAlign=bottom;labelBackgroundColor=none;endArrow=none;endFill=0;dashed=1;rounded=0;exitX=1;exitY=0.5;exitDx=0;exitDy=0;entryX=0;entryY=1;entryDx=0;entryDy=0;" edge="1" parent="1" source="Nvel9qnSEQth3nOyBZjf-5" target="Nvel9qnSEQth3nOyBZjf-7">
          <mxGeometry x="-0.6488" y="18" width="160" relative="1" as="geometry">
            <mxPoint x="410" y="190" as="sourcePoint" />
            <mxPoint x="458" y="222" as="targetPoint" />
            <mxPoint y="1" as="offset" />
          </mxGeometry>
        </mxCell>
        <mxCell id="Nvel9qnSEQth3nOyBZjf-56" value="Authenticated&lt;div&gt;User&lt;/div&gt;" style="shape=umlActor;verticalLabelPosition=bottom;verticalAlign=top;html=1;outlineConnect=0;" vertex="1" parent="1">
          <mxGeometry x="50" y="370" width="30" height="60" as="geometry" />
        </mxCell>
        <mxCell id="Nvel9qnSEQth3nOyBZjf-57" value="" style="endArrow=none;html=1;rounded=0;entryX=0;entryY=0.5;entryDx=0;entryDy=0;exitX=0.5;exitY=0.5;exitDx=0;exitDy=0;exitPerimeter=0;strokeColor=default;endFill=0;" edge="1" parent="1" source="Nvel9qnSEQth3nOyBZjf-56" target="Nvel9qnSEQth3nOyBZjf-19">
          <mxGeometry width="50" height="50" relative="1" as="geometry">
            <mxPoint x="140" y="390" as="sourcePoint" />
            <mxPoint x="415" y="390" as="targetPoint" />
          </mxGeometry>
        </mxCell>
        <mxCell id="Nvel9qnSEQth3nOyBZjf-58" value="" style="endArrow=none;html=1;rounded=0;entryX=0;entryY=0.5;entryDx=0;entryDy=0;exitX=0.5;exitY=0.5;exitDx=0;exitDy=0;exitPerimeter=0;endFill=0;" edge="1" parent="1" source="Nvel9qnSEQth3nOyBZjf-56" target="Nvel9qnSEQth3nOyBZjf-27">
          <mxGeometry width="50" height="50" relative="1" as="geometry">
            <mxPoint x="280" y="380" as="sourcePoint" />
            <mxPoint x="555" y="380" as="targetPoint" />
          </mxGeometry>
        </mxCell>
        <mxCell id="Nvel9qnSEQth3nOyBZjf-59" value="" style="endArrow=none;html=1;rounded=0;entryX=0;entryY=0.5;entryDx=0;entryDy=0;exitX=0.5;exitY=0.5;exitDx=0;exitDy=0;exitPerimeter=0;endFill=0;" edge="1" parent="1" source="Nvel9qnSEQth3nOyBZjf-56" target="Nvel9qnSEQth3nOyBZjf-20">
          <mxGeometry width="50" height="50" relative="1" as="geometry">
            <mxPoint x="280" y="430" as="sourcePoint" />
            <mxPoint x="555" y="430" as="targetPoint" />
          </mxGeometry>
        </mxCell>
        <mxCell id="Nvel9qnSEQth3nOyBZjf-60" value="" style="endArrow=none;html=1;rounded=0;entryX=0;entryY=0.5;entryDx=0;entryDy=0;exitX=0.5;exitY=0.5;exitDx=0;exitDy=0;exitPerimeter=0;endFill=0;" edge="1" parent="1" source="Nvel9qnSEQth3nOyBZjf-56" target="Nvel9qnSEQth3nOyBZjf-21">
          <mxGeometry width="50" height="50" relative="1" as="geometry">
            <mxPoint x="300" y="450" as="sourcePoint" />
            <mxPoint x="575" y="450" as="targetPoint" />
          </mxGeometry>
        </mxCell>
        <mxCell id="Nvel9qnSEQth3nOyBZjf-61" value="&amp;lt;&amp;lt;include&amp;gt;&amp;gt;" style="html=1;verticalAlign=bottom;labelBackgroundColor=none;endArrow=none;endFill=0;dashed=1;rounded=0;exitX=0.5;exitY=0;exitDx=0;exitDy=0;entryX=1;entryY=1;entryDx=0;entryDy=0;exitPerimeter=0;entryPerimeter=0;" edge="1" parent="1" source="Nvel9qnSEQth3nOyBZjf-56" target="Nvel9qnSEQth3nOyBZjf-2">
          <mxGeometry x="-0.6123" y="-28" width="160" relative="1" as="geometry">
            <mxPoint x="120" y="366" as="sourcePoint" />
            <mxPoint x="168" y="340" as="targetPoint" />
            <mxPoint as="offset" />
          </mxGeometry>
        </mxCell>
        <mxCell id="Nvel9qnSEQth3nOyBZjf-62" value="Search&amp;nbsp;&lt;div&gt;Parameters&lt;/div&gt;" style="ellipse;whiteSpace=wrap;html=1;fillColor=#d0cee2;strokeColor=light-dark(#000000, #cbb9dd);" vertex="1" parent="1">
          <mxGeometry x="425" y="350" width="90" height="45" as="geometry" />
        </mxCell>
        <mxCell id="Nvel9qnSEQth3nOyBZjf-63" value="&amp;lt;&amp;lt;include&amp;gt;&amp;gt;" style="html=1;verticalAlign=bottom;labelBackgroundColor=none;endArrow=none;endFill=0;dashed=1;rounded=0;exitX=1;exitY=0.5;exitDx=0;exitDy=0;entryX=0;entryY=1;entryDx=0;entryDy=0;" edge="1" parent="1" source="Nvel9qnSEQth3nOyBZjf-27" target="Nvel9qnSEQth3nOyBZjf-62">
          <mxGeometry x="-0.8029" y="19" width="160" relative="1" as="geometry">
            <mxPoint x="480" y="376" as="sourcePoint" />
            <mxPoint x="529" y="360" as="targetPoint" />
            <mxPoint as="offset" />
          </mxGeometry>
        </mxCell>
        <mxCell id="Nvel9qnSEQth3nOyBZjf-65" value="Choose&lt;div&gt;Contact&lt;/div&gt;" style="ellipse;whiteSpace=wrap;html=1;fillColor=#d0cee2;strokeColor=light-dark(#000000, #cbb9dd);" vertex="1" parent="1">
          <mxGeometry x="426" y="480" width="90" height="45" as="geometry" />
        </mxCell>
        <mxCell id="Nvel9qnSEQth3nOyBZjf-66" value="&amp;lt;&amp;lt;include&amp;gt;&amp;gt;" style="html=1;verticalAlign=bottom;labelBackgroundColor=none;endArrow=none;endFill=0;dashed=1;rounded=0;exitX=1;exitY=0.5;exitDx=0;exitDy=0;entryX=0;entryY=1;entryDx=0;entryDy=0;" edge="1" parent="1" source="Nvel9qnSEQth3nOyBZjf-21" target="Nvel9qnSEQth3nOyBZjf-65">
          <mxGeometry x="-0.5735" y="10" width="160" relative="1" as="geometry">
            <mxPoint x="420" y="462" as="sourcePoint" />
            <mxPoint x="469" y="440" as="targetPoint" />
            <mxPoint as="offset" />
          </mxGeometry>
        </mxCell>
        <mxCell id="Nvel9qnSEQth3nOyBZjf-68" value="" style="endArrow=none;html=1;rounded=0;exitX=1;exitY=0.5;exitDx=0;exitDy=0;entryX=0;entryY=0.75;entryDx=0;entryDy=0;endFill=0;" edge="1" parent="1" source="Nvel9qnSEQth3nOyBZjf-13" target="Nvel9qnSEQth3nOyBZjf-3">
          <mxGeometry width="50" height="50" relative="1" as="geometry">
            <mxPoint x="390" y="370" as="sourcePoint" />
            <mxPoint x="440" y="320" as="targetPoint" />
          </mxGeometry>
        </mxCell>
        <mxCell id="Nvel9qnSEQth3nOyBZjf-69" value="" style="endArrow=none;html=1;rounded=0;entryX=0;entryY=0.75;entryDx=0;entryDy=0;endFill=0;" edge="1" parent="1" target="Nvel9qnSEQth3nOyBZjf-3">
          <mxGeometry width="50" height="50" relative="1" as="geometry">
            <mxPoint x="390" y="340" as="sourcePoint" />
            <mxPoint x="440" y="320" as="targetPoint" />
            <Array as="points">
              <mxPoint x="560" y="340" />
            </Array>
          </mxGeometry>
        </mxCell>
        <mxCell id="Nvel9qnSEQth3nOyBZjf-70" value="" style="endArrow=none;html=1;rounded=0;entryX=0;entryY=0.75;entryDx=0;entryDy=0;endFill=0;exitX=1;exitY=1;exitDx=0;exitDy=0;" edge="1" parent="1" source="Nvel9qnSEQth3nOyBZjf-27" target="Nvel9qnSEQth3nOyBZjf-3">
          <mxGeometry width="50" height="50" relative="1" as="geometry">
            <mxPoint x="750" y="590" as="sourcePoint" />
            <mxPoint x="405" y="480" as="targetPoint" />
            <Array as="points">
              <mxPoint x="560" y="410" />
            </Array>
          </mxGeometry>
        </mxCell>
        <mxCell id="Nvel9qnSEQth3nOyBZjf-71" value="" style="endArrow=none;html=1;rounded=0;entryX=0;entryY=0.75;entryDx=0;entryDy=0;exitX=1;exitY=0;exitDx=0;exitDy=0;endFill=0;" edge="1" parent="1" source="Nvel9qnSEQth3nOyBZjf-20" target="Nvel9qnSEQth3nOyBZjf-3">
          <mxGeometry width="50" height="50" relative="1" as="geometry">
            <mxPoint x="550" y="440" as="sourcePoint" />
            <mxPoint x="795" y="440" as="targetPoint" />
            <Array as="points">
              <mxPoint x="560" y="446" />
            </Array>
          </mxGeometry>
        </mxCell>
        <mxCell id="Nvel9qnSEQth3nOyBZjf-72" value="" style="endArrow=none;html=1;rounded=0;entryX=0;entryY=0.75;entryDx=0;entryDy=0;exitX=0.5;exitY=1;exitDx=0;exitDy=0;endFill=0;" edge="1" parent="1" source="Nvel9qnSEQth3nOyBZjf-21" target="Nvel9qnSEQth3nOyBZjf-3">
          <mxGeometry width="50" height="50" relative="1" as="geometry">
            <mxPoint x="390" y="553" as="sourcePoint" />
            <mxPoint x="753" y="370" as="targetPoint" />
            <Array as="points">
              <mxPoint x="620" y="540" />
            </Array>
          </mxGeometry>
        </mxCell>
        <mxCell id="Nvel9qnSEQth3nOyBZjf-74" value="&amp;lt;&amp;lt;include&amp;gt;&amp;gt;" style="html=1;verticalAlign=bottom;labelBackgroundColor=none;endArrow=none;endFill=0;dashed=1;rounded=0;exitX=1;exitY=0.5;exitDx=0;exitDy=0;entryX=0;entryY=0;entryDx=0;entryDy=0;" edge="1" parent="1" source="Nvel9qnSEQth3nOyBZjf-20" target="Nvel9qnSEQth3nOyBZjf-65">
          <mxGeometry x="1" y="13" width="160" relative="1" as="geometry">
            <mxPoint x="400" y="537" as="sourcePoint" />
            <mxPoint x="436" y="520" as="targetPoint" />
            <mxPoint x="5" y="5" as="offset" />
          </mxGeometry>
        </mxCell>
      </root>
    </mxGraphModel>
  </diagram>
</mxfile>
